<svg xmlns="http://www.w3.org/2000/svg" viewBox="0 0 589.61 589.61"><defs><style>.cls-1{fill:#ff83e5;}.cls-2{fill:#fcd9d0;}.cls-3{fill:#882df0;}.cls-4{fill:#9850ff;}.cls-5{fill:#b504a0;}.cls-6{fill:#a00795;}.cls-7{fill:#ffcdc0;}.cls-8{fill:#742add;}.cls-9{fill:#f9beb7;}.cls-10{fill:#fcc8be;}</style></defs><g id="Icon_2" data-name="Icon 2"><circle class="cls-1" cx="294.8" cy="294.8" r="217.83"/><circle class="cls-2" cx="367.29" cy="162.9" r="37.48" transform="translate(124.36 482.94) rotate(-76.72)"/><path class="cls-3" d="M384.58,165.18a18.31,18.31,0,0,1-18.3,18.3V168.91a3.74,3.74,0,0,0,3.74-3.73Z"/><path class="cls-4" d="M366.28,168.91v14.57A18.3,18.3,0,0,1,348,165.18h14.56a3.73,3.73,0,0,0,3.72,3.73Z"/><path class="cls-4" d="M364.45,153.82v3.27h-4.81v-2.47a3.14,3.14,0,0,0-3.14-3.14,3.14,3.14,0,0,0-3.16,3.14v2.47h-4.81v-3.27a8,8,0,0,1,15.92,0Z"/><path class="cls-3" d="M383.73,153.82v3.27h-4.8v-2.47a3.14,3.14,0,0,0-3.15-3.14,3.14,3.14,0,0,0-3.16,3.14v2.47h-4.8v-3.27a8,8,0,1,1,15.91,0Z"/><path class="cls-5" d="M294.8,157.58V479.5H208.65s-78.58,3.47-87.46-55.4c-9.2-61,37.42-73.77,59.21-92.42s38.32-57.48,41.7-73.26c2-9.31,2.67-21.49,2.94-29.93.12-5.62.27-8.76.27-9.24l.07-.54a69.59,69.59,0,0,1,1.48-9.55,66.81,66.81,0,0,1,65.07-51.65c.73,0,1.41,0,2.14,0a3.24,3.24,0,0,1,.44,0Z"/><path class="cls-5" d="M462.38,424.1C456.74,485.57,375,479.5,375,479.5H294.8V157.58a66.73,66.73,0,0,1,63.08,56.34c.26,1.49.46,3,.58,4.48v0c0,.48,0,4.42.1,10,.26,8.44.94,20.62,2.94,29.93,3.38,15.78,19.94,54.59,41.67,73.26S468,362.68,462.38,424.1Z"/><path class="cls-6" d="M462.38,424.1C456.74,485.57,375,479.5,375,479.5H294.51V157.56l.29,0a66.73,66.73,0,0,1,63.08,56.34c.26,1.49.46,3,.58,4.48v0c0,.48,0,4.42.1,10,.26,8.44.94,20.62,2.94,29.93,3.38,15.78,19.94,54.59,41.67,73.26S468,362.68,462.38,424.1Z"/><path class="cls-2" d="M230.13,339.8l-20.92,84.65L121.12,284.29l-25-42.4a23.66,23.66,0,0,1,40.49-24.49c16.75,27,46.22,73.7,56.48,85.35A424.88,424.88,0,0,0,230.13,339.8Z"/><path class="cls-7" d="M493,241.89l-25,42.4-89.84,143v-1.49L357.22,340.9c15.15-9.75,24.61-22.06,38.78-38.15,10.27-11.65,39.74-58.38,56.49-85.35A23.66,23.66,0,0,1,493,241.89Z"/><path class="cls-8" d="M378.16,425.78v53.67h-85.3l1.72-127.66c13.58-.33,21.32-.59,21.32-.59s13.82,8.85,41.29-10.46Z"/><path class="cls-3" d="M294.58,351.79V479.45H209.21v-55l20.93-84.8s12.29,13.54,37.43,12.72C276.66,352.1,287.14,352,294.58,351.79Z"/><path class="cls-2" d="M293,313c.31,0,1.45.2,1.76.18l-.22,163.75L269.19,352l2.4-42.09a57.74,57.74,0,0,0,19.3,3.23,12.6,12.6,0,0,0,1.37-.09Z"/><path class="cls-7" d="M319.22,352.49l-24.64,124.4L294.5,313.1c.1,0-.05,0,.05,0a64.39,64.39,0,0,0,22.17-4.75l0,.64Z"/><path class="cls-2" d="M293,313c.31,0,1.45.2,1.76.18l-.22,163.75L269.19,352l2.4-42.09a57.74,57.74,0,0,0,19.3,3.23,12.6,12.6,0,0,0,1.37-.09Z"/><path class="cls-7" d="M319.22,352.49l-24.64,124.4L294.5,313.1c.1,0-.05,0,.05,0a64.39,64.39,0,0,0,22.17-4.75l0,.64Z"/><path class="cls-2" d="M357.15,248.35a66.61,66.61,0,0,1-65.24,66.76h-.13c-.38,0-.75,0-1.13,0a66.79,66.79,0,0,1,0-133.58h.25a8.53,8.53,0,0,1,1,0A66.62,66.62,0,0,1,357.15,248.35Z"/><path class="cls-7" d="M359,248.38c0,36.52-28,66.13-64.46,66.72l.05-133.4C331.42,181.83,359,211.59,359,248.38Z"/><path class="cls-9" d="M324.59,251.5a30,30,0,0,1-30,30V257.63a6.14,6.14,0,0,0,6.13-6.13Z"/><path class="cls-10" d="M294.59,257.63V281.5a30,30,0,0,1-30-30h23.87a6.13,6.13,0,0,0,6.1,6.13Z"/><path class="cls-5" d="M358,213.89c-2.12.49-3.63.67-3.63.67-24.71,3.81-43.73-17.18-43.73-17.18a70,70,0,0,1-17.32,10.22c-29.09,12.13-60.94,4.72-60.94,4.72a10.3,10.3,0,0,1-5.41-3.2,66.83,66.83,0,0,1,65.08-51.65c.42,0,.84,0,1.27,0A66.72,66.72,0,0,1,358,213.89Z"/><path class="cls-6" d="M358,213.89c-2.13.49-3.66.67-3.66.67-24.89,3.81-43.7-17.18-43.7-17.18a60.92,60.92,0,0,1-16.07,9.67l0-49.5C327.57,158.15,353.06,182.32,358,213.89Z"/><path class="cls-2" d="M129.4,396.22l-1.71-4.68a12.75,12.75,0,0,0-7.6-7.6l-4.71-1.72a.68.68,0,0,1,0-1.28l4.92-1.86a12.72,12.72,0,0,0,7.45-7.57L129.4,367a.68.68,0,0,1,1.28,0l1.67,4.48a12.76,12.76,0,0,0,7.16,7.35l5.28,2.14a.68.68,0,0,1,0,1.27L139.89,384a12.72,12.72,0,0,0-7.49,7.53l-1.72,4.66A.68.68,0,0,1,129.4,396.22Z"/><path class="cls-2" d="M208.32,162.31l-2.27-6.2A16.88,16.88,0,0,0,196,146l-6.23-2.28a.9.9,0,0,1,0-1.69l6.52-2.47a16.91,16.91,0,0,0,9.88-10l2.18-6a.91.91,0,0,1,1.7,0l2.21,5.94a16.89,16.89,0,0,0,9.48,9.75l7,2.83a.9.9,0,0,1,0,1.68l-6.47,2.42a16.89,16.89,0,0,0-9.92,10L210,162.31A.9.9,0,0,1,208.32,162.31Z"/><path class="cls-2" d="M475.29,345.31,473,339.1A16.89,16.89,0,0,0,463,329l-6.23-2.28a.9.9,0,0,1,0-1.69l6.52-2.47a16.93,16.93,0,0,0,9.88-10l2.18-6a.91.91,0,0,1,1.7,0l2.21,5.93a16.83,16.83,0,0,0,9.48,9.75l7,2.84a.9.9,0,0,1,0,1.68l-6.47,2.42a16.87,16.87,0,0,0-9.92,10L477,345.31A.9.9,0,0,1,475.29,345.31Z"/></g></svg>