<svg id="Icon_1" data-name="Icon 1" xmlns="http://www.w3.org/2000/svg" viewBox="0 0 589.61 589.61"><defs><style>.cls-1{fill:#882df0;}.cls-2{fill:#fcd9d0;}.cls-3{fill:#ffcdc0;}.cls-4{fill:#ffece9;}.cls-5{fill:#f946d8;}.cls-6{fill:#ff83e5;}</style></defs><path class="cls-1" d="M512.9,294.82A218,218,0,0,1,405,482.91a219.55,219.55,0,0,1-24.61,12.4,217.22,217.22,0,0,1-85.31,17.32c-120.29,0-217.81-97.52-217.81-217.81A217,217,0,0,1,131.46,151c4.38-5,9-9.8,13.85-14.33A217.08,217.08,0,0,1,295.05,77C415.37,77,512.9,174.5,512.9,294.82Z"/><path class="cls-2" d="M430.84,231.88l-2.27-6.2a16.88,16.88,0,0,0-10.07-10.07l-6.23-2.28a.9.9,0,0,1,0-1.69l6.52-2.47a16.93,16.93,0,0,0,9.88-10l2.18-6a.91.91,0,0,1,1.7,0l2.21,5.94a16.89,16.89,0,0,0,9.48,9.75l7,2.83a.9.9,0,0,1,0,1.68l-6.47,2.42a16.86,16.86,0,0,0-9.92,10l-2.28,6.17A.9.9,0,0,1,430.84,231.88Z"/><path class="cls-2" d="M180.68,351.35l-2-5.39a14.65,14.65,0,0,0-8.74-8.73l-5.41-2a.78.78,0,0,1,0-1.47l5.66-2.14a14.69,14.69,0,0,0,8.58-8.7l1.89-5.23a.78.78,0,0,1,1.47,0l1.92,5.15a14.65,14.65,0,0,0,8.23,8.46l6.07,2.46a.78.78,0,0,1,0,1.46l-5.61,2.1a14.69,14.69,0,0,0-8.62,8.66l-2,5.36A.78.78,0,0,1,180.68,351.35Z"/><path class="cls-2" d="M378.73,348.15l-1.55-4.25a11.57,11.57,0,0,0-6.9-6.9L366,335.43a.62.62,0,0,1,0-1.16l4.47-1.69a11.6,11.6,0,0,0,6.78-6.88l1.5-4.13a.62.62,0,0,1,1.16,0l1.52,4.08a11.56,11.56,0,0,0,6.5,6.68l4.8,1.95a.62.62,0,0,1,0,1.15l-4.43,1.66a11.56,11.56,0,0,0-6.81,6.84l-1.56,4.24A.62.62,0,0,1,378.73,348.15Z"/><path class="cls-2" d="M346.43,259.35c-23.68,26.25-42.73,13.39-40.86,5.14s18.21-24.19,18.21-24.19c0-6.17,4.63-44.76,4.63-44.76-9.26,0-53.26-19.56-53.26-19.56s-9.52,18.53-11.61,21.62,13.91,50.44,11.34,82.85c-1.12,14.25-5.65,20.87-10.79,23.2-6.57,3-14.13-.88-17-4.6-5.14-6.65-5.65-23.22-7.23-29.91S225,233.1,216.19,212s-18.51-24.7-32.42-29.33-51-26.76-51-26.76c-.52-1.66-.94-3.33-1.36-4.9,4.38-5,9-9.8,13.85-14.33a216.34,216.34,0,0,1,72.9-45.73,41.66,41.66,0,0,1,11.22,4.12c7.71,3.63,14.58,6.8,58.82,15s82.88,56.09,89.57,70.51S370.11,233.1,346.43,259.35Z"/><path class="cls-2" d="M175.18,179c-12.81-6-31-16.46-38.68-21C146.17,163.63,163.27,173.4,175.18,179Z"/><path class="cls-2" d="M269.6,298.85a14.11,14.11,0,0,1-5.52,4.81c-.29-3.55-.66-7.46-1.12-11.57Q266.28,295.48,269.6,298.85Z"/><path class="cls-2" d="M360.1,241.33a146,146,0,0,1-13.45,17.58C323,285.15,303.9,272.31,305.8,264S324,239.85,324,239.85c0-.93.16-2.65.31-4.86.45-6.22,2.08-38.31,2.08-38.31-9.27,0-51.87-19.49-51.87-19.49s-8.66,16.87-10.75,20c-1.14,1.73,3.38,17.51,7.12,36.74-.82.27-1.65.63-2.48,1A32,32,0,0,0,252.09,252c-4.57-10.63-9.85-21.67-14.06-32.68-8.24-21.62-23.17-50.43-33.45-54.06-4.53-1.6-30.93-14.75-59.07-29A216.6,216.6,0,0,1,218.44,90.5a38.75,38.75,0,0,1,11.42,4.62c7.71,3.65,14.37,6.3,58.6,14.52s82.89,56.1,89.58,70.51C383.32,191.58,375.39,217.87,360.1,241.33Z"/><path class="cls-3" d="M305.57,264.49c1.91-8.23,19-25.18,19-25.18,0-6.16,2.68-43.23,2.68-43.23-9.25,0-52.08-20.1-52.08-20.1l-4.47,8.62a53,53,0,0,0,34.89,16.6s-.78,15.42,3.66,27c0,0-16,14.31-18.32,26.28-.86,4.41.57,9.29,2.91,13.72a13.25,13.25,0,0,0,18.2,5.57l.1-.06C307.36,271.7,304.84,267.74,305.57,264.49Z"/><path class="cls-3" d="M72.61,98.78l.39,1-2-1Z"/><path class="cls-3" d="M264.08,303.66c-6.57,3-14.1-.9-17-4.62-5.13-6.64-5.64-23.22-7.22-29.88S225,233.1,216.18,212s-18.51-24.7-32.42-29.32c-1.31-.44-2.84-1-4.54-1.8l-2.41-1.07a2.08,2.08,0,0,1-.24-.1c-.34-.19-.71-.34-1-.51a.74.74,0,0,1-.34-.15c-11.91-5.64-29-15.41-38.68-21a5.09,5.09,0,0,0-.54-.32l-.27-.15a7.74,7.74,0,0,0-.73-.43,6.25,6.25,0,0,0-.9-.51,5.21,5.21,0,0,0-.82-.49.2.2,0,0,0-.17-.1.52.52,0,0,0-.25-.14v0c-2.33-1.36-3.69-2.19-3.69-2.19,1.26-1.5.87-1.09,2.33-2.67q6.57-7.51,13.84-14.35c28.13,14.25,54.54,27.41,59.06,29,10.29,3.62,25.22,32.44,33.46,54.05,4.2,11,9.48,22.06,14.05,32.68,4.4,10.19,8.1,20,9.61,29.08.6,3.6,1.09,7.18,1.48,10.61C263.42,296.2,263.79,300.11,264.08,303.66Z"/><path class="cls-2" d="M464.57,431.62a218.64,218.64,0,0,1-84.21,63.69c-7.93-5.84-21.47-12.67-41-9.62-32.05,5-103.08-.36-136.29-35.5,0,0-27-27.43-23.92-54.43a8.62,8.62,0,0,1,1.42-3.66c1.18-1.6,3.3-2.87,7.08-1.76,7.71,2.33,29.15,25.86,64.26,26.65s74.72-8.11,64.47-15.82-65.44-8.89-71.79-16a12.49,12.49,0,0,1-1.33-1.78c-3.33-5.53-1.36-12.79,4.08-16.78a15.4,15.4,0,0,1,5.54-2.48c10.25-2.33,84-12.85,117.24,8C396.75,388.8,446.13,420,464.57,431.62Z"/><path class="cls-3" d="M405,482.91a219.55,219.55,0,0,1-24.61,12.4c-7.93-5.84-21.47-12.67-41-9.62-32.05,5-103.08-.36-136.29-35.5,0,0-27-27.43-23.92-54.43a8.62,8.62,0,0,1,1.42-3.66,111.37,111.37,0,0,0,46.06,48.8c41.7,23.17,82.61,28.19,106.17,26.65s39.61-4.3,66,11.58C401,480.46,403.07,481.7,405,482.91Z"/><path class="cls-4" d="M243.25,383.36c-3.33-5.53-1.36-12.79,4.08-16.78,5.87-1.54,12.46-2.42,15.18.42C267.23,371.87,259.91,384.24,243.25,383.36Z"/><path class="cls-5" d="M369.38,265.88a31.14,31.14,0,0,1-9.25,21.86q-19,19.36-38.17,38.77c-3.2,3.23-6.38,6.47-9.58,9.71-2,2-4,2-6-.06Q288,317.52,269.59,298.84c2.63-3.75,4.6-9.62,5.29-18.39a5.78,5.78,0,0,0,0-.72c1-14-1.36-30.72-4.23-45.39a31.43,31.43,0,0,1,8.28-1.78A30,30,0,0,1,301,239.48c2.66,2.18,5,4.72,7.44,7.17.69.69,1.15.78,1.87,0,1.91-2,3.81-4.09,5.9-5.93a34.27,34.27,0,0,1,7.86-5.32,31.78,31.78,0,0,1,35.8,6.35A33.66,33.66,0,0,1,369.38,265.88Z"/><path class="cls-6" d="M369.38,265.88a31.14,31.14,0,0,1-9.25,21.86q-19,19.36-38.17,38.77a5,5,0,0,1-2.41-1.48q-22.32-22.68-44.64-45.3c1-14-1.36-30.72-4.23-45.39a31.43,31.43,0,0,1,8.28-1.78A30,30,0,0,1,301,239.48c2.66,2.18,5,4.72,7.44,7.17.69.69,1.15.78,1.87,0,1.91-2,3.81-4.09,5.9-5.93a34.27,34.27,0,0,1,7.86-5.32,31.78,31.78,0,0,1,35.8,6.35A33.66,33.66,0,0,1,369.38,265.88Z"/><path class="cls-5" d="M518.57,327.94a15.8,15.8,0,0,1-4.72,11.12q-9.69,9.87-19.42,19.72l-4.87,5a1.89,1.89,0,0,1-3.06,0q-12.08-12.27-24.16-24.53a16.15,16.15,0,0,1-4.43-8c-.19-.87-.3-1.76-.45-2.64v-1.8c.12-.82.24-1.64.38-2.46a16.33,16.33,0,0,1,9.24-11.88,15.89,15.89,0,0,1,5.48-1.41,15.33,15.33,0,0,1,11.22,3.51c1.35,1.11,2.54,2.41,3.78,3.65.35.35.58.41,1,0,1-1,1.94-2.06,3-3a15.65,15.65,0,0,1,13.95-3.9C513.56,312.8,518.69,320.13,518.57,327.94Z"/><path class="cls-6" d="M518.57,327.94a15.8,15.8,0,0,1-4.72,11.12q-9.69,9.87-19.42,19.72a2.55,2.55,0,0,1-1.22-.75L469,333.49a16.15,16.15,0,0,1-4.43-8c-.19-.87-.31-1.76-.45-2.64v-1.79c.12-.82.24-1.65.39-2.47a16.23,16.23,0,0,1,2.53-6.2,15.89,15.89,0,0,1,5.48-1.41,15.33,15.33,0,0,1,11.22,3.51c1.35,1.11,2.54,2.41,3.78,3.65.35.35.58.41,1,0,1-1,1.94-2.06,3-3a15.65,15.65,0,0,1,13.95-3.9C513.56,312.8,518.69,320.13,518.57,327.94Z"/><path class="cls-5" d="M154.05,230.86a19.26,19.26,0,0,1-5.74,13.54q-11.82,12-23.66,24l-5.94,6c-1.24,1.26-2.46,1.25-3.72,0q-14.73-14.94-29.44-29.89a19.6,19.6,0,0,1-5.4-9.74c-.23-1-.37-2.14-.55-3.21V229.4c.15-1,.29-2,.47-3a19.9,19.9,0,0,1,11.26-14.47A19.43,19.43,0,0,1,98,210.2a18.65,18.65,0,0,1,13.66,4.28c1.65,1.36,3.1,2.94,4.61,4.44.43.44.71.5,1.17,0,1.18-1.25,2.37-2.52,3.65-3.66a19.07,19.07,0,0,1,17-4.75C147.94,212.41,154.2,221.34,154.05,230.86Z"/><path class="cls-6" d="M154.05,230.86a19.26,19.26,0,0,1-5.74,13.54q-11.82,12-23.66,24a3,3,0,0,1-1.49-.92L93.71,237.62a19.65,19.65,0,0,1-5.4-9.74c-.23-1.06-.37-2.14-.55-3.21v-2.19c.15-1,.3-2,.48-3a19.5,19.5,0,0,1,3.09-7.55A19.43,19.43,0,0,1,98,210.2a18.65,18.65,0,0,1,13.66,4.28c1.65,1.36,3.1,2.94,4.61,4.44.43.44.71.5,1.17,0,1.18-1.25,2.37-2.52,3.65-3.66a19.07,19.07,0,0,1,17-4.75C147.94,212.41,154.2,221.34,154.05,230.86Z"/></svg>