<svg xmlns="http://www.w3.org/2000/svg" viewBox="0 0 589.61 589.61"><defs><style>.cls-1{fill:#ff83e5;}.cls-2{fill:#882df0;}.cls-3{fill:#742add;}.cls-4{fill:#fce0db;}.cls-5{fill:#ffece9;}.cls-6{fill:#fcd9d0;}.cls-7{fill:#ce01ad;}</style></defs><g id="Icon_3" data-name="Icon 3"><path class="cls-1" d="M512.63,294.82a216.78,216.78,0,0,1-25.82,103v0A217.89,217.89,0,0,1,156,462.68l0,0a217.74,217.74,0,0,1-2.81-333.3c2.11-1.82,4.29-3.6,6.5-5.35a217.75,217.75,0,0,1,353,170.82Z"/><path class="cls-2" d="M477.55,397.81A364.42,364.42,0,0,0,492,444a7.19,7.19,0,0,1-7.27,9.82c-11-.88-19.08-2.13-37.92-3-20.86-1-43.54-1.54-61.32-.6-44.79,2.3-92.66,27.79-156.73,26.25-22.74-.55-48.12-6.05-72.76-13.73l0,0a217.74,217.74,0,0,1-2.81-333.3c2.11-1.82,4.29-3.6,6.5-5.35,27-7.72,56.24-12.28,86.09-10.47,114.24,7,106.53,30.88,176.78,26.25,8.71-.57,16.54-1.12,23.59-1.63,24.29-1.73,29.87-3,38.68-3.93a7.21,7.21,0,0,1,7.46,9.72,486.49,486.49,0,0,0-15,47.46c-8.74,33.63-16.45,77.87-13.06,122.11a534.28,534.28,0,0,0,8.37,62c1.58,8,3.24,15.42,4.93,22.25Z"/><path class="cls-3" d="M492,444a7.16,7.16,0,0,1-7.24,9.77c-11-.87-19.1-2.13-38-3-20.86-1-43.54-1.54-61.32-.6-44.79,2.3-92.66,27.79-156.73,26.25-22.33-.54-47.16-5.84-71.35-13.32a7.4,7.4,0,0,1-2.6-1.41A217.76,217.76,0,0,1,124.4,159.13c5.13-6.44,15.29-.67,12.34,7-9.28,24.23-16,50.08-16.83,75.3-3.08,91.59,28.4,195.86,129.7,176,101.15-19.81,110.34-45,145.15-58.7s43.77-12,75.94,15.12a7.28,7.28,0,0,1,2.42,4.11c1.42,7.05,2.92,13.66,4.43,19.78A365.4,365.4,0,0,0,492,444Z"/><path class="cls-4" d="M432.92,216H402.55a7.57,7.57,0,0,1-6.35-11.67L419,169.19H402.55a7.56,7.56,0,1,1,0-15.12h30.37a7.56,7.56,0,0,1,6.34,11.68l-22.8,35.16h16.46a7.56,7.56,0,1,1,0,15.12Z"/><path class="cls-4" d="M386.69,263.48H369.88a4.18,4.18,0,0,1-3.51-6.46L379,237.56h-9.11a4.19,4.19,0,1,1,0-8.37h16.81a4.19,4.19,0,0,1,3.51,6.46l-12.62,19.46h9.11a4.19,4.19,0,0,1,0,8.37Z"/><path class="cls-5" d="M182.15,410.39l-11.24,22.7-.36.74a12.5,12.5,0,0,1-16.72,5.67l-2.26-1.13a12.48,12.48,0,0,1-5.65-16.72L149.2,415l8.32-16.86a12.48,12.48,0,0,1,16.69-5.64l2.29,1.13A12.48,12.48,0,0,1,182.15,410.39Z"/><path class="cls-6" d="M182.15,410.39l-11.24,22.7a71.67,71.67,0,0,1-21.71-18l8.32-16.86a12.48,12.48,0,0,1,16.69-5.64l2.29,1.13A12.48,12.48,0,0,1,182.15,410.39Z"/><path class="cls-5" d="M273.81,410.39l11.24,22.7.36.74a12.49,12.49,0,0,0,16.71,5.67l2.27-1.13A12.48,12.48,0,0,0,310,421.65L306.75,415l-8.32-16.86a12.47,12.47,0,0,0-16.69-5.64l-2.29,1.13A12.47,12.47,0,0,0,273.81,410.39Z"/><path class="cls-6" d="M273.81,410.39l11.24,22.7a71.61,71.61,0,0,0,21.7-18l-8.32-16.86a12.47,12.47,0,0,0-16.69-5.64l-2.29,1.13A12.47,12.47,0,0,0,273.81,410.39Z"/><rect class="cls-6" x="216.71" y="215.45" width="22.84" height="19.59"/><rect class="cls-5" x="216.71" y="224.64" width="22.84" height="10.4"/><path class="cls-7" d="M246.23,217H220a13,13,0,0,1-13-13h0a13,13,0,0,1,13-13h26.24a13,13,0,0,1,13,13h0A13,13,0,0,1,246.23,217Z"/><path class="cls-1" d="M232.68,217h-24.6c-6.72,0-12.17-5.81-12.17-13h0c0-7.16,5.45-13,12.17-13h24.6c6.72,0,12.17,5.81,12.17,13h0C244.85,211.19,239.4,217,232.68,217Z"/><rect class="cls-6" x="294.51" y="252.18" width="19.59" height="13.55" transform="translate(-93.98 291.02) rotate(-45)"/><rect class="cls-5" x="295.85" y="255.42" width="10.4" height="13.55" transform="translate(-97.23 289.67) rotate(-45)"/><path class="cls-7" d="M329.08,270.62,291.86,234.4a5,5,0,0,1,.75-7.61c10.53-7.39,24.18-8.08,34.75-1.83A30,30,0,0,1,333,229.3c10.92,10.62,12.09,27.58,3.64,40.36A5,5,0,0,1,329.08,270.62Z"/><path class="cls-1" d="M318.91,260.72,291.86,234.4a5,5,0,0,1,.75-7.61c10.53-7.39,24.18-8.08,34.75-1.83,6.55,10.38,6.24,24.07-.86,34.8A5,5,0,0,1,318.91,260.72Z"/><rect class="cls-6" x="144.93" y="249.16" width="13.55" height="19.59" transform="translate(-138.67 183.12) rotate(-45)"/><rect class="cls-5" x="148.18" y="257" width="13.55" height="10.4" transform="translate(-140.02 186.37) rotate(-45)"/><path class="cls-7" d="M126.92,270.62l37.23-36.22a5,5,0,0,0-.76-7.61c-10.53-7.39-24.18-8.08-34.74-1.83A29.71,29.71,0,0,0,123,229.3c-10.91,10.62-12.08,27.58-3.64,40.36A5,5,0,0,0,126.92,270.62Z"/><path class="cls-1" d="M137.09,260.72l27.06-26.32a5,5,0,0,0-.76-7.61c-10.53-7.39-24.18-8.08-34.74-1.83-6.55,10.38-6.24,24.07.85,34.8A5,5,0,0,0,137.09,260.72Z"/><circle class="cls-7" cx="228.52" cy="335.18" r="100.75" transform="translate(-170.08 259.76) rotate(-45)"/><circle class="cls-1" cx="228.52" cy="335.18" r="88.84" transform="translate(-170.08 259.76) rotate(-45)"/><path class="cls-6" d="M307.93,335.18c0,1.35,0,2.73-.09,4.06a79.4,79.4,0,0,1-76.1,75.27c-1.06.05-2.12.08-3.21.08-1.64,0-3.28,0-4.89-.17l-1.07-.08c.37,0,.73,0,1.07-.09.94-.07,1.85-.17,2.74-.29s1.81-.24,2.71-.39,1.78-.31,2.65-.48a30.87,30.87,0,0,0,3.28-.7c1.08-.24,2.17-.53,3.23-.84a57,57,0,0,0,6.32-2.08c.77-.26,1.54-.58,2.29-.89l.75-.31c1-.41,2-.87,3-1.35s2-.95,2.91-1.48,1.72-.89,2.56-1.39c.31-.17.6-.37.92-.56a24.25,24.25,0,0,0,2.17-1.33c.91-.55,1.81-1.15,2.67-1.76s1.5-1.06,2.22-1.61c.41-.32.82-.63,1.23-1,.61-.43,1.19-.89,1.76-1.37,1.67-1.38,3.29-2.82,4.83-4.32.77-.75,1.54-1.52,2.27-2.32.89-.91,1.76-1.85,2.58-2.84.58-.65,1.15-1.35,1.69-2,.82-1,1.61-2.05,2.38-3.11.63-.84,1.26-1.74,1.84-2.63.38-.55.74-1.13,1.11-1.71a9.43,9.43,0,0,0,.57-.94c.49-.75,1-1.5,1.36-2.27a74,74,0,0,0,4-8.08c.14-.36.29-.72.43-1.06.24-.55.46-1.11.65-1.69s.46-1.18.66-1.76a1.27,1.27,0,0,0,.12-.36,19.59,19.59,0,0,0,.74-2.2c.32-1,.63-2,.9-3,.17-.58.31-1.18.45-1.79a.85.85,0,0,0,.08-.29c0-.16.09-.36.14-.55.07-.39.17-.77.27-1.18.14-.63.26-1.26.38-1.88s.24-1.23.34-1.86.22-1.23.29-1.83c.17-1.26.34-2.49.46-3.74.05-.32.07-.61.09-.94.08-.94.15-1.88.2-2.82.07-1.36.09-2.71.09-4.06s0-2.7-.09-4.05c0-.94-.12-1.88-.2-2.82a9.09,9.09,0,0,0-.09-.94c-.12-1.26-.29-2.49-.46-3.74-.07-.6-.17-1.23-.29-1.83s-.22-1.26-.34-1.86-.24-1.25-.38-1.88c-.1-.41-.2-.8-.27-1.18s-.17-.68-.26-1a13.73,13.73,0,0,0-.37-1.47,4.57,4.57,0,0,0-.16-.61c-.25-.87-.49-1.73-.78-2.58a19.42,19.42,0,0,0-.74-2.19,1.27,1.27,0,0,0-.12-.36c-.2-.58-.41-1.19-.66-1.77s-.41-1.13-.65-1.68c-.14-.34-.29-.7-.43-1.07a75.82,75.82,0,0,0-4-8.08c-.41-.77-.87-1.51-1.36-2.26a8.41,8.41,0,0,0-.57-.94c-.37-.58-.73-1.16-1.11-1.72-.58-.89-1.21-1.78-1.84-2.62-.77-1.07-1.56-2.1-2.38-3.12-.54-.67-1.11-1.37-1.69-2-.82-1-1.69-1.93-2.58-2.85-.73-.79-1.5-1.57-2.27-2.31-1.54-1.5-3.16-2.95-4.83-4.32-.57-.48-1.15-.94-1.76-1.38q-.62-.5-1.23-1c-.72-.56-1.47-1.09-2.22-1.62s-1.76-1.2-2.67-1.76c-.7-.48-1.43-.91-2.17-1.32-.32-.2-.61-.39-.92-.56-.84-.51-1.69-1-2.56-1.4s-1.93-1-2.91-1.47-2-.94-3-1.35c-2-.84-4.08-1.62-6.17-2.32-1-.36-2.13-.69-3.19-1s-2.15-.6-3.23-.84a28.58,28.58,0,0,0-3.28-.7c-.87-.17-1.76-.34-2.65-.49s-1.79-.26-2.71-.38-1.8-.22-2.74-.29c-.34-.05-.7-.07-1.07-.1l1.07-.07c1.61-.12,3.25-.17,4.89-.17,1.09,0,2.15,0,3.21.07a79.41,79.41,0,0,1,76.1,75.28C307.91,332.46,307.93,333.83,307.93,335.18Z"/><path class="cls-5" d="M296,335.18c0,1.35,0,2.7-.09,4.06a79.38,79.38,0,0,1-64.16,73.85,69.89,69.89,0,0,1-8.1,1.16c-.34.05-.7.07-1.07.09a79.36,79.36,0,0,1-73.34-75.1c-.08-1.36-.1-2.71-.1-4.06s0-2.7.1-4.05A79.37,79.37,0,0,1,222.57,256c.37,0,.73.05,1.07.1a67.79,67.79,0,0,1,8.1,1.16,79.37,79.37,0,0,1,64.16,73.85C296,332.48,296,333.83,296,335.18Z"/><path class="cls-7" d="M210.56,315.91V316c0,7.36-7,13.36-15.72,13.36s-15.73-6-15.73-13.36v-.21c2,5.49,8.32,9.53,15.76,9.53S208.48,321.34,210.56,315.91Z"/><path class="cls-7" d="M277.15,315.91V316c0,7.36-7,13.36-15.72,13.36s-15.73-6-15.73-13.36v-.21c2,5.49,8.32,9.53,15.76,9.53S275.07,321.34,277.15,315.91Z"/><path class="cls-7" d="M254.57,364.42v.09c0,11-11.85,19.89-26.44,19.89s-26.43-8.93-26.43-19.89v-.31c3.4,8.17,14,14.19,26.48,14.19S251.06,372.5,254.57,364.42Z"/></g></svg>